<?xml version="1.0" standalone="no"?>
<!DOCTYPE svg PUBLIC "-//W3C//DTD SVG 20010904//EN"
 "http://www.w3.org/TR/2001/REC-SVG-20010904/DTD/svg10.dtd">
<svg version="1.0" xmlns="http://www.w3.org/2000/svg"
 width="1024.000000pt" height="1024.000000pt" viewBox="0 0 1024.000000 1024.000000"
 preserveAspectRatio="xMidYMid meet">
<metadata>
Created by potrace 1.11, written by Peter Selinger 2001-2013
</metadata>
<g transform="translate(0.000000,1024.000000) scale(0.100000,-0.100000)"
fill="#000000" stroke="none">
<path d="M4826 10229 c-2172 -124 -4032 -1615 -4629 -3709 -286 -1005 -255
-2078 89 -3082 502 -1461 1691 -2650 3154 -3153 l160 -54 0 1584 0 1585 -615
0 c-342 0 -615 4 -615 9 0 4 -40 323 -90 707 -50 384 -90 702 -90 706 0 5 317
8 705 8 l705 0 0 509 c0 297 -4 542 -10 588 -12 87 -41 185 -72 247 -31 61
-124 147 -198 182 -144 69 -280 83 -812 84 l-368 0 0 640 c0 517 2 640 13 640
7 0 89 7 182 15 431 37 967 46 1190 20 542 -63 974 -311 1240 -710 112 -167
209 -401 255 -611 50 -231 53 -271 57 -956 l5 -648 614 0 614 0 0 -715 0 -715
-615 0 -615 0 0 -1700 0 -1700 68 0 c112 0 409 19 552 36 2054 231 3775 1691
4343 3684 207 726 249 1513 121 2265 -242 1419 -1068 2662 -2294 3451 -888
572 -1972 854 -3044 793z"/>
</g>
</svg>
